# xmcd CD database file
#
# Track frame offsets:
#	150
#	15917
#	33461
#	50241
#	67377
#	85658
#	102506
#	122464
#	141685
#	153973
#
# Disc length: 2312 seconds
#
# Revision: 5
# Processed by: cddbd v1.5.2PL0 Copyright (c) Steve Scherf et al.
# Submitted via: CDex 2.21
#
DISCID=8a09060a
DTITLE=Terri Clark - Roots and Wings
DYEAR=2011
DGENRE=Country
TTITLE0=Wrecking Ball
TTITLE1=Breakin' Up Thing
TTITLE2=The One
TTITLE3=Northern Girl
TTITLE4=Beautiful and Broken
TTITLE5=Lonesome's Last Call
TTITLE6=The Good Was Great
TTITLE7=Smile
TTITLE8=We're Here for a Good Time
TTITLE9=Flowers in Snow
EXTD=YEAR: 2011
EXTT0=
EXTT1=
EXTT2=
EXTT3=
EXTT4=
EXTT5=
EXTT6=
EXTT7=
EXTT8=
EXTT9=
PLAYORDER=
